<svg xmlns="http://www.w3.org/2000/svg" viewBox="0 0 24 24" fill="none" stroke="#EA580C" stroke-width="2" stroke-linecap="round" stroke-linejoin="round">
  <path d="M6 22V4a2 2 0 0 1 2-2h8a2 2 0 0 1 2 2v18" />
  <path d="M6 12H4a2 2 0 0 0-2 2v8" />
  <path d="M18 14h2a2 2 0 0 1 2 2v6" />
  <path d="M14 6v.01" />
  <path d="M10 6v.01" />
  <path d="M14 10v.01" />
  <path d="M10 10v.01" />
  <path d="M14 14v.01" />
  <path d="M10 14v.01" />
  <path d="M14 18v.01" />
  <path d="M10 18v.01" />
  <path d="M2 22h20" />
</svg>
